<svg width="512" height="512" xmlns="http://www.w3.org/2000/svg">

 <g>
  <title>background</title>
  <rect fill="none" id="canvas_background" height="402" width="582" y="-1" x="-1"/>
 </g>
 <g>
  <title>Layer 1</title>
  <polygon fill="#ffffff" id="svg_2" points="90.107,380.337 90.107,406.727 421.992,406.727 421.992,380.337 399.734,380.337 345.852,380.337     282.988,380.337 229.105,380.337 166.243,380.337 112.363,380.337   "/>
  <polygon fill="#ffffff" id="svg_3" points="85.421,416.097 72.146,416.097 72.146,444.498 439.95,444.498 439.95,416.097 426.678,416.097   "/>
  <rect fill="#ffffff" id="svg_4" y="255.206" x="117.048" width="44.509" height="115.761"/>
  <path fill="#ffffff" id="svg_5" d="m435.654,192.204l14.363,0l-43.186,-19.7c-0.021,-0.009 -0.043,-0.016 -0.063,-0.025l-150.715,-68.757c-15.37,7.054 -30.115,13.798 -44.421,20.325c-22.456,10.248 -43.819,19.959 -64.747,29.473c-28.489,12.95 -55.685,25.313 -84.901,38.684l14.456,0l359.214,0zm-253.224,-30.36c12.145,-4.967 23.122,-10.042 34.742,-15.416c11.669,-5.396 23.735,-10.975 37.102,-16.439c1.181,-0.483 2.506,-0.462 3.672,0.053l71.843,31.855c2.024,0.897 3.145,3.088 2.686,5.254c-0.459,2.166 -2.37,3.715 -4.584,3.715l-143.687,0c-2.239,0 -4.166,-1.584 -4.598,-3.781c-0.432,-2.197 0.751,-4.394 2.824,-5.241z"/>
  <path fill="#ffffff" id="svg_6" d="m255.978,139.42c-12.449,5.145 -23.839,10.412 -34.872,15.513c-4.689,2.168 -9.444,4.367 -14.295,6.562l98.953,0l-49.786,-22.075z"/>
  <path fill="#ffffff" id="svg_7" d="m254.092,94.312c0.621,-0.285 1.288,-0.427 1.955,-0.427c0.664,0 1.327,0.141 1.945,0.423l146.035,66.618l0,-93.423l-295.961,0l0,93.375c11.813,-5.377 23.521,-10.699 35.283,-16.045c34.714,-15.78 70.608,-32.096 110.743,-50.521z"/>
  <polygon fill="#ffffff" id="svg_8" points="430.969,201.575 81.125,201.575 81.125,245.834 112.363,245.834 166.243,245.834 229.105,245.834     282.988,245.834 345.852,245.834 399.734,245.834 430.969,245.834   "/>
  <rect fill="#ffffff" id="svg_9" y="255.206" x="233.791" width="44.512" height="115.761"/>
  <rect fill="#ffffff" id="svg_10" y="255.206" x="350.537" width="44.512" height="115.761"/>
 </g>
</svg>