<svg width="48" height="48" xmlns="http://www.w3.org/2000/svg">

 <g>
  <title>background</title>
  <rect fill="none" id="canvas_background" height="50" width="50" y="-1" x="-1"/>
 </g>
 <g>
  <title>Layer 1</title>
  <path fill="#2f5572" stroke="null" id="svg_1" d="m23.111085,4.143916c-10.800208,0 -19.555538,8.577521 -19.555538,19.158392s8.75533,19.158392 19.555538,19.158392c1.321679,0 2.61265,-0.12882 3.860793,-0.373688c-0.503097,-0.235738 -0.557995,-2.004347 -0.0605,-3.012707c0.553819,-1.122562 2.291665,-3.966386 0.572916,-4.920563s-1.241318,-1.384493 -2.291665,-2.488346s-0.620786,-1.269792 -0.687499,-1.552877c-0.229166,-0.972887 1.012152,-2.432218 1.069444,-2.581893s0.057292,-0.710956 0.038194,-0.87934s-0.782934,-0.617409 -0.973907,-0.636118s-0.286458,0.29935 -0.553819,0.318059s-1.43229,-0.692247 -1.680554,-0.87934s-0.362847,-0.636118 -0.706597,-0.972887s-0.381944,-0.074837 -0.916666,-0.280641s-2.25347,-0.823212 -3.571177,-1.347074s-1.43229,-1.258217 -1.451388,-1.77739s-0.802083,-1.272237 -1.169309,-1.814809c-0.367125,-0.542572 -0.434856,-1.290946 -0.568537,-1.122562s0.687499,2.132868 0.553819,2.188996s-0.420139,-0.542572 -0.802083,-1.029015s0.401041,-0.224512 -0.82118,-2.581893s0.381944,-3.559469 0.458333,-4.789598s1.031249,0.449025 0.534722,-0.336769s0.038194,-2.432218 -0.34375,-3.030917s-2.559026,0.673537 -2.559026,0.673537c0.057292,-0.57999 1.909721,-1.571587 3.246525,-2.488346s2.153197,-0.205803 3.227428,0.130966s1.145832,0.224512 0.782985,-0.112256s0.152778,-0.505153 0.993055,-0.374187s1.069444,1.122562 2.348956,1.029015s0.13368,0.243222 0.305555,0.561281s-0.190972,0.280641 -1.031249,0.841922s0.019097,0.561281 1.508679,1.627715s1.031249,-0.710956 0.878471,-1.496749s1.088541,-0.168384 1.088541,-0.168384c0.916666,0.5987 0.747286,0.032928 1.415689,0.238732s2.480141,1.707043 2.480141,1.707043c-2.272567,1.216109 -0.840277,1.347074 -0.458333,1.627715s-0.782985,0.823212 -0.782985,0.823212c-0.47743,-0.467734 -0.553819,0.018709 -0.859374,0.187094s-0.019097,0.5987 -0.019097,0.5987c-1.580281,0.243222 -1.222221,1.870937 -1.203124,2.263833s-1.012152,0.991596 -1.279513,1.552877s0.687499,1.77739 0.190972,1.852227s-0.993055,-1.833518 -3.666663,-1.122562c-0.806055,0.214384 -2.59722,1.122562 -1.64236,2.974789s2.539928,-0.523862 3.07465,-0.261931s-0.152778,1.440621 -0.038194,1.459331s1.508679,0.051438 1.585068,1.646424s2.11979,1.459331 2.559026,1.496749s1.909721,-1.17869 2.11979,-1.234818s1.050346,-0.748375 2.883678,0.280641s2.769095,0.87934 3.399303,1.309656s0.190972,1.290946 0.782985,1.571587s2.960067,-0.093547 3.55208,0.860631s-2.444442,5.743776 -3.399303,6.267638s-1.394096,1.721262 -2.348956,2.488346s-2.291665,1.716572 -3.55208,2.450927c-1.115684,0.649938 -1.316434,1.81431 -1.81342,2.181861c8.751867,-1.904713 15.296047,-9.554599 15.296047,-18.702232c0,-10.58087 -8.75533,-19.158392 -19.555538,-19.158392zm4.583329,17.979701c-0.267361,0.074837 -0.82118,0.561281 -2.177081,-0.224512s-2.291665,-0.636118 -2.406248,-0.767084c0,0 -0.114583,-0.318059 0.47743,-0.374187c1.215652,-0.1153 2.749998,1.103853 3.093747,1.122562s0.515625,-0.336769 1.126735,-0.143838c0.611111,0.192731 0.152778,0.312222 -0.114583,0.387059zm-6.397564,-16.071346c-0.133171,-0.094894 0.110305,-0.204157 0.255444,-0.392897c0.083773,-0.109063 0.021643,-0.29012 0.1265,-0.392897c0.286458,-0.280641 1.699651,-0.673537 1.423327,0.093547c-0.276222,0.767084 -1.595202,0.841922 -1.805272,0.692247zm3.4184,2.432218c-0.47743,-0.018709 -1.601262,-0.135057 -1.394096,-0.336769c0.80687,-0.785793 -0.305555,-1.010306 -0.993055,-1.066434s-0.973957,-0.430315 -0.630208,-0.467734s1.718748,0.018709 1.947915,0.205803s1.470485,0.673537 1.546874,1.029015s0,0.654828 -0.47743,0.636118zm4.144094,-0.130966c-0.381944,0.29935 -2.303887,-1.074117 -2.673609,-1.384493c-1.604165,-1.347074 -2.46354,-0.89805 -2.800414,-1.122562c-0.336977,-0.224512 -0.216944,-0.523862 0.29868,-0.972887s1.967012,0.149675 2.807289,0.243222s1.814235,0.729665 1.833332,1.485823c0.019097,0.756108 0.916666,1.451548 0.534722,1.750897z"/>
 </g>
</svg>