<svg width="47.00000000000001" height="50" xmlns="http://www.w3.org/2000/svg">

 <g>
  <title>background</title>
  <rect fill="none" id="canvas_background" height="52" width="49" y="-1" x="-1"/>
 </g>
 <g>
  <title>Layer 1</title>
  <path fill="#2f5572" stroke="null" id="svg_1" d="m21.372652,13.98134c1.47611,-0.043415 2.648314,-1.21562 2.691729,-2.691729c0.043415,-1.606355 -1.259035,-2.908804 -2.865389,-2.865389c-1.47611,0.043415 -2.648314,1.21562 -2.691729,2.691729c-0.043415,1.606355 1.259035,2.908804 2.865389,2.865389zm20.144554,16.671355l-0.78147,0l-5.513703,-10.680087c0.78147,-0.08683 1.56294,-0.390735 2.257579,-0.69464c1.04196,-0.477565 1.259035,-1.866844 0.477565,-2.691729l-0.043415,-0.043415c-0.477565,-0.477565 -1.21562,-0.651225 -1.866844,-0.34732c-0.60781,0.26049 -1.47611,0.564395 -2.300994,0.564395c-2.431239,0 -3.516614,-2.778559 -12.460101,-2.778559s-10.028862,2.778559 -12.460101,2.778559c-0.8683,0 -1.693184,-0.26049 -2.300994,-0.564395c-0.651225,-0.26049 -1.38928,-0.130245 -1.866844,0.34732l-0.043415,0.043415c-0.78147,0.824885 -0.564395,2.170749 0.477565,2.691729c0.69464,0.34732 1.47611,0.60781 2.257579,0.69464l-5.513703,10.680087l-0.78147,0c-0.34732,0 -0.60781,0.303905 -0.564395,0.651225c0.477565,2.778559 3.994179,4.905894 8.292263,4.905894s7.814698,-2.127334 8.292263,-4.905894c0.043415,-0.34732 -0.217075,-0.651225 -0.564395,-0.651225l-0.78147,0l-5.513703,-10.636672c3.603444,-0.303905 5.513703,-2.127334 8.292263,-2.127334l0,21.099684c-1.519525,0 -2.778559,1.259035 -2.778559,2.778559l-3.082464,0c-1.21562,0 -2.474654,1.259035 -2.474654,2.778559l22.228473,0c0,-1.519525 -1.259035,-2.778559 -3.082464,-2.778559l-2.474654,0c0,-1.519525 -1.259035,-2.778559 -2.778559,-2.778559l0,-21.099684c2.778559,0 4.688819,1.823429 8.292263,2.127334l-5.513703,10.636672l-0.78147,0c-0.34732,0 -0.60781,0.303905 -0.564395,0.651225c0.477565,2.778559 3.994179,4.905894 8.292263,4.905894s7.814698,-2.127334 8.292263,-4.905894c0.043415,-0.34732 -0.217075,-0.651225 -0.564395,-0.651225zm-28.567061,0l-8.335678,0l4.167839,-7.814698l4.167839,7.814698zm16.671355,0l4.167839,-7.814698l4.167839,7.814698l-8.335678,0z"/>
 </g>
</svg>